<svg width="22" height="21" viewBox="0 0 22 21" fill="none" xmlns="http://www.w3.org/2000/svg">
<path fill-rule="evenodd" clip-rule="evenodd" d="M5.24414 2.90039H20.1562L17.816 14.8407H5.24414V2.90039ZM5.87541 3.56377V14.1773H17.3011L19.3818 3.56377H5.87541Z" fill="black"/>
<path fill-rule="evenodd" clip-rule="evenodd" d="M5.24414 2.90039H21.1504L18.6342 14.8407H5.24414V2.90039ZM6.53056 4.15731V13.5838H17.5854L19.5717 4.15731H6.53056Z" fill="black"/>
<path fill-rule="evenodd" clip-rule="evenodd" d="M4.83853 2.51646H0.273438V1.90552H5.19742L6.23828 3.58124L5.69548 3.89557L4.83853 2.51646Z" fill="black"/>
<path fill-rule="evenodd" clip-rule="evenodd" d="M0.273438 0.9104H5.08706L6.23828 3.20413L5.27496 3.89548L4.45081 2.25408H0.273438V0.9104Z" fill="black"/>
<path d="M8.22656 18.8209C8.22656 19.92 7.33681 20.8109 6.23828 20.8109C5.13976 20.8109 4.25 19.92 4.25 18.8209C4.25 17.7218 5.13976 16.8308 6.23828 16.8308C7.33681 16.8308 8.22656 17.7218 8.22656 18.8209Z" fill="black"/>
<path d="M18.168 18.8209C18.168 19.92 17.4999 20.8109 16.6768 20.8109C15.8536 20.8109 15.1855 19.92 15.1855 18.8209C15.1855 17.7218 15.8536 16.8308 16.6768 16.8308C17.4999 16.8308 18.168 17.7218 18.168 18.8209Z" fill="black"/>
</svg>
